<svg xmlns="http://www.w3.org/2000/svg" width="640" height="360" viewBox="0 0 640 360" fill="none">
  <defs>
    <linearGradient id="co-bg" x1="0" y1="0" x2="640" y2="360" gradientUnits="userSpaceOnUse">
      <stop stop-color="#042f2e"/>
      <stop offset="1" stop-color="#0f172a"/>
    </linearGradient>
  </defs>
  <rect width="640" height="360" fill="url(#co-bg)"/>
  <circle cx="160" cy="180" r="26" fill="#2dd4bf"/>
  <circle cx="300" cy="108" r="20" fill="#5eead4"/>
  <circle cx="430" cy="168" r="30" fill="#14b8a6"/>
  <circle cx="280" cy="252" r="22" fill="#99f6e4"/>
  <circle cx="500" cy="250" r="18" fill="#fbbf24"/>
  <path d="M180 168l100-48M318 122l92 36M298 234l-118-42M302 236l110-50M448 186l42 50" stroke="#5eead4" stroke-width="7"/>
  <rect x="86" y="86" width="210" height="48" rx="10" fill="#134e4a" stroke="#5eead4" stroke-width="2"/>
  <rect x="102" y="104" width="150" height="12" rx="6" fill="#99f6e4"/>
  <rect x="360" y="78" width="188" height="36" rx="8" fill="#1e293b" stroke="#fbbf24" stroke-width="2"/>
  <rect x="376" y="90" width="120" height="10" rx="5" fill="#fde68a"/>
</svg>
